<?xml version="1.0" encoding="utf-8"?>
<!-- Generator: Adobe Illustrator 16.0.4, SVG Export Plug-In . SVG Version: 6.00 Build 0)  -->
<!DOCTYPE svg PUBLIC "-//W3C//DTD SVG 1.1//EN" "http://www.w3.org/Graphics/SVG/1.1/DTD/svg11.dtd">
<svg version="1.1" id="Layer_1" xmlns="http://www.w3.org/2000/svg" xmlns:xlink="http://www.w3.org/1999/xlink" x="0px" y="0px"
	 width="437.27px" height="88.645px" viewBox="0 0 437.27 88.645" enable-background="new 0 0 437.27 88.645" xml:space="preserve">
<g>
	<g>
		<path d="M13.065,33.913L0,0.289h9.126l8.599,24.738l8.599-24.738h8.79l-13.21,33.624H13.065z"/>
		<path d="M53.987,7.157v26.755h-8.55V7.157h-10.04V0.24h28.725v6.917H53.987z"/>
		<path d="M99.329,33.913H89.098l-7.253-10.712l-7.253,10.712h-9.943l12.009-17.196L65.417,0.289h9.943l6.484,9.799l6.484-9.799
			h10.04L87.272,16.332L99.329,33.913z"/>
		<path d="M143.469,5.668l-4.947,5.86c-2.209-2.69-5.476-4.371-8.454-4.371c-5.332,0-9.366,4.227-9.366,9.751
			c0,5.62,4.034,9.895,9.366,9.895c2.834,0,6.101-1.537,8.454-3.938l4.996,5.284c-3.603,3.699-8.935,6.148-13.883,6.148
			c-10.135,0-17.676-7.445-17.676-17.292C111.959,7.301,119.692,0,129.924,0C134.919,0,140.106,2.209,143.469,5.668z"/>
		<path d="M154.706,27.716l-2.45,6.196h-8.79l14.507-33.624h8.79l14.17,33.624h-9.126l-2.402-6.196H154.706z M162.104,8.791
			l-4.899,12.441h9.703L162.104,8.791z"/>
		<path d="M206.868,26.755v7.157h-22.816V0.289h8.55v26.467H206.868z"/>
		<path d="M240.25,5.668l-4.947,5.86c-2.209-2.69-5.476-4.371-8.454-4.371c-5.332,0-9.366,4.227-9.366,9.751
			c0,5.62,4.034,9.895,9.366,9.895c2.834,0,6.101-1.537,8.454-3.938l4.996,5.284c-3.603,3.699-8.935,6.148-13.883,6.148
			c-10.135,0-17.676-7.445-17.676-17.292C208.74,7.301,216.474,0,226.705,0C231.7,0,236.888,2.209,240.25,5.668z"/>
		<path d="M274.447,19.791c0,8.886-5.908,14.506-15.323,14.506c-9.462,0-15.515-5.62-15.515-14.506V0.289h8.55v19.502
			c0,4.563,2.931,7.349,7.014,7.349c4.034,0,6.772-2.786,6.772-7.349V0.289h8.502V19.791z"/>
		<path d="M303.409,26.755v7.157h-22.816V0.289h8.55v26.467H303.409z"/>
		<path d="M315.271,27.716l-2.45,6.196h-8.79l14.507-33.624h8.79l14.17,33.624h-9.126l-2.402-6.196H315.271z M322.668,8.791
			l-4.899,12.441h9.703L322.668,8.791z"/>
		<path d="M356.578,7.157v26.755h-8.551V7.157h-10.039V0.24h28.725v6.917H356.578z"/>
		<path d="M402.784,17.052c0,9.799-7.781,17.245-18.205,17.245c-10.375,0-18.157-7.397-18.157-17.245
			C366.422,7.253,374.204,0,384.579,0C395.003,0,402.784,7.301,402.784,17.052z M375.165,17.101c0,5.668,4.371,10.039,9.511,10.039
			c5.188,0,9.318-4.371,9.318-10.039c0-5.668-4.131-9.943-9.318-9.943S375.165,11.432,375.165,17.101z"/>
		<path d="M422.571,24.45h-0.24h-6.485v9.463h-8.55V0.289h15.035c8.886,0,13.978,4.227,13.978,11.72c0,5.14-2.161,8.838-6.1,10.808
			l7.061,11.096h-9.703L422.571,24.45z M422.331,17.725c3.698,0,5.86-1.874,5.86-5.428c0-3.506-2.162-5.284-5.86-5.284h-6.485
			v10.712H422.331z"/>
	</g>
	<line fill="none" stroke="#000000" stroke-width="5" stroke-miterlimit="10" x1="0" y1="43.808" x2="437.27" y2="43.808"/>
	<g>
		<path d="M9.715,64.619c-0.866,0.908-2.085,1.474-3.438,1.474c-2.624,0-4.751-2.127-4.751-4.752c0-2.624,2.127-4.751,4.751-4.751
			c2.555,0,4.639,2.017,4.747,4.545l1.524,0.461c0.003-0.084,0.006-0.169,0.006-0.255c0-3.467-2.81-6.276-6.277-6.276
			C2.81,55.064,0,57.874,0,61.341c0,3.466,2.81,6.277,6.276,6.277c1.983,0,3.75-0.921,4.9-2.356L9.715,64.619z"/>
		<path d="M28.441,64.625c0.865,0.907,2.085,1.474,3.438,1.474c2.624,0,4.751-2.127,4.751-4.751c0-2.625-2.127-4.752-4.751-4.752
			c-2.555,0-4.639,2.017-4.747,4.545l-1.523,0.462c-0.003-0.085-0.006-0.17-0.006-0.255c0-3.467,2.81-6.277,6.276-6.277
			c3.466,0,6.276,2.81,6.276,6.277c0,3.466-2.81,6.276-6.276,6.276c-1.983,0-3.75-0.92-4.9-2.356L28.441,64.625z"/>
		<path d="M28.441,79.09c0.865-0.907,2.085-1.473,3.438-1.473c2.624,0,4.751,2.127,4.751,4.751c0,2.625-2.127,4.751-4.751,4.751
			c-2.555,0-4.639-2.017-4.747-4.545l-1.523-0.461c-0.003,0.084-0.006,0.169-0.006,0.255c0,3.467,2.81,6.276,6.276,6.276
			c3.466,0,6.276-2.81,6.276-6.276c0-3.466-2.81-6.276-6.276-6.276c-1.983,0-3.75,0.92-4.9,2.356L28.441,79.09z"/>
		<path d="M9.715,79.09c-0.866-0.907-2.085-1.473-3.438-1.473c-2.624,0-4.751,2.127-4.751,4.751c0,2.625,2.127,4.751,4.751,4.751
			c2.555,0,4.639-2.017,4.747-4.545l1.524-0.461c0.003,0.084,0.006,0.169,0.006,0.255c0,3.467-2.81,6.276-6.277,6.276
			C2.81,88.645,0,85.835,0,82.368c0-3.466,2.81-6.276,6.276-6.276c1.983,0,3.75,0.92,4.9,2.356L9.715,79.09z"/>
		<path d="M33.405,81.189l-1.984-0.703c-0.375-0.132-0.775-0.04-1.052,0.208l-7.039-2.929l-0.789-1.14v-9.557l0.789-1.14
			l7.039-2.929c0.277,0.247,0.677,0.34,1.052,0.208l1.984-0.702c0.548-0.195,0.834-0.796,0.64-1.343l-0.365-1.034
			c-0.195-0.548-0.795-0.834-1.343-0.641l-1.983,0.702c-0.379,0.135-0.634,0.464-0.69,0.836l-7.123,2.316V60.58
			c0-0.582-0.471-1.052-1.053-1.052h-4.822c-0.581,0-1.052,0.471-1.052,1.052v2.762l-7.123-2.316
			c-0.057-0.372-0.31-0.702-0.689-0.836l-1.983-0.702c-0.548-0.194-1.148,0.093-1.343,0.641L4.11,61.162
			c-0.194,0.547,0.093,1.148,0.641,1.343l1.983,0.702c0.375,0.132,0.775,0.039,1.053-0.208l7.039,2.929l0.789,1.14v3.727v5.831
			l-0.789,1.14l-7.039,2.929c-0.277-0.248-0.677-0.34-1.053-0.208l-1.983,0.703c-0.548,0.194-0.835,0.795-0.641,1.343l0.366,1.033
			c0.195,0.548,0.795,0.835,1.343,0.641l1.983-0.702c0.379-0.135,0.633-0.464,0.689-0.835l7.123-2.316v2.324
			c0,0.581,0.471,1.052,1.052,1.052h4.822c0.582,0,1.053-0.471,1.053-1.052v-2.324l7.123,2.316c0.056,0.372,0.311,0.701,0.69,0.835
			l1.983,0.702c0.547,0.194,1.148-0.093,1.343-0.641l0.365-1.033C34.24,81.984,33.953,81.384,33.405,81.189z"/>
	</g>
	<g>
		<path d="M63.661,83.075l-0.032-14.274l-5.271,12.078H54.72l-5.271-12.078v14.274h-4.988V61.083h6.118l5.961,13.082l5.96-13.082
			h6.086v21.992H63.661z"/>
		<path d="M92.772,73.852c0,5.804-3.859,9.475-10.008,9.475c-6.18,0-10.133-3.67-10.133-9.475V61.115h5.584v12.737
			c0,2.98,1.914,4.8,4.581,4.8c2.635,0,4.423-1.82,4.423-4.8V61.115h5.553V73.852z"/>
		<path d="M111.688,78.401v4.674H96.786v-21.96h5.584v17.286H111.688z"/>
		<path d="M124.518,65.601v17.474h-5.584V65.601h-6.557v-4.518h18.76v4.518H124.518z"/>
		<path d="M133.52,83.075v-21.96h5.584v21.96H133.52z"/>
		<path d="M153.472,76.895h-0.157h-4.234v6.18h-5.585v-21.96h9.819c5.805,0,9.13,2.761,9.13,7.655c0,3.357-1.412,5.772-3.984,7.059
			l4.611,7.247h-6.337L153.472,76.895z M153.314,72.503c2.416,0,3.828-1.224,3.828-3.545c0-2.291-1.412-3.451-3.828-3.451h-4.234
			v6.996H153.314z"/>
		<path d="M188.513,72.063c0,6.4-5.083,11.263-11.891,11.263c-6.776,0-11.858-4.831-11.858-11.263c0-6.4,5.082-11.137,11.858-11.137
			C183.43,60.927,188.513,65.695,188.513,72.063z M170.474,72.095c0,3.702,2.854,6.557,6.212,6.557c3.388,0,6.086-2.855,6.086-6.557
			c0-3.702-2.698-6.494-6.086-6.494C173.297,65.601,170.474,68.393,170.474,72.095z"/>
		<path d="M200.902,65.601v17.474h-5.584V65.601h-6.557v-4.518h18.761v4.518H200.902z"/>
		<path d="M231.082,72.063c0,6.4-5.083,11.263-11.891,11.263c-6.776,0-11.858-4.831-11.858-11.263c0-6.4,5.082-11.137,11.858-11.137
			C225.999,60.927,231.082,65.695,231.082,72.063z M213.043,72.095c0,3.702,2.854,6.557,6.211,6.557
			c3.389,0,6.087-2.855,6.087-6.557c0-3.702-2.698-6.494-6.087-6.494C215.866,65.601,213.043,68.393,213.043,72.095z"/>
		<path d="M244.006,76.895h-0.157h-4.235v6.18h-5.584v-21.96h9.819c5.804,0,9.129,2.761,9.129,7.655
			c0,3.357-1.411,5.772-3.984,7.059l4.612,7.247h-6.338L244.006,76.895z M243.849,72.503c2.415,0,3.827-1.224,3.827-3.545
			c0-2.291-1.412-3.451-3.827-3.451h-4.235v6.996H243.849z"/>
		<path d="M273.839,63.311l-2.103,4.361c-2.321-1.349-5.238-2.29-7.027-2.29c-1.442,0-2.415,0.533-2.415,1.6
			c0,3.796,11.607,1.631,11.607,9.568c0,4.392-3.89,6.714-8.784,6.714c-3.67,0-7.436-1.381-10.039-3.514l2.165-4.298
			c2.259,1.977,5.646,3.294,7.937,3.294c1.757,0,2.855-0.659,2.855-1.914c0-3.89-11.607-1.568-11.607-9.349
			c0-4.047,3.481-6.62,8.752-6.62C268.349,60.864,271.58,61.836,273.839,63.311z"/>
		<path d="M287.107,65.601v17.474h-5.584V65.601h-6.557v-4.518h18.761v4.518H287.107z"/>
		<path d="M315.875,73.852c0,5.804-3.859,9.475-10.008,9.475c-6.181,0-10.134-3.67-10.134-9.475V61.115h5.585v12.737
			c0,2.98,1.913,4.8,4.58,4.8c2.635,0,4.423-1.82,4.423-4.8V61.115h5.554V73.852z"/>
		<path d="M325.473,65.507v5.082h9.851v4.393h-9.851v8.094h-5.584v-21.96h16.282v4.392H325.473z"/>
		<path d="M344.419,65.507v5.082h9.851v4.393h-9.851v8.094h-5.584v-21.96h16.282v4.392H344.419z"/>
		<path d="M360.795,80.691c0,1.569-1.099,2.635-2.636,2.635s-2.604-1.066-2.604-2.635c0-1.537,1.066-2.604,2.604-2.604
			S360.795,79.154,360.795,80.691z"/>
		<path d="M383.319,64.628l-3.231,3.828c-1.443-1.757-3.576-2.855-5.521-2.855c-3.482,0-6.117,2.761-6.117,6.369
			c0,3.67,2.635,6.462,6.117,6.462c1.852,0,3.984-1.004,5.521-2.573l3.263,3.451c-2.353,2.416-5.835,4.016-9.066,4.016
			c-6.619,0-11.545-4.863-11.545-11.294c0-6.337,5.051-11.105,11.733-11.105C377.735,60.927,381.123,62.37,383.319,64.628z"/>
		<path d="M407.819,72.063c0,6.4-5.083,11.263-11.891,11.263c-6.776,0-11.858-4.831-11.858-11.263c0-6.4,5.082-11.137,11.858-11.137
			C402.736,60.927,407.819,65.695,407.819,72.063z M389.78,72.095c0,3.702,2.854,6.557,6.212,6.557c3.388,0,6.086-2.855,6.086-6.557
			c0-3.702-2.698-6.494-6.086-6.494C392.604,65.601,389.78,68.393,389.78,72.095z"/>
		<path d="M429.966,83.075l-0.031-14.274l-5.271,12.078h-3.639l-5.271-12.078v14.274h-4.988V61.083h6.117l5.961,13.082l5.961-13.082
			h6.086v21.992H429.966z"/>
	</g>
</g>
</svg>
